<?xml version="1.0" standalone="no"?><!DOCTYPE svg PUBLIC "-//W3C//DTD SVG 1.1//EN" "http://www.w3.org/Graphics/SVG/1.1/DTD/svg11.dtd"><svg t="1625121642456" class="icon" viewBox="0 0 1024 1024" version="1.1" xmlns="http://www.w3.org/2000/svg" p-id="849" xmlns:xlink="http://www.w3.org/1999/xlink" width="200" height="200"><defs><style type="text/css"></style></defs><path d="M680.713481 144.004741a75.851852 75.851852 0 0 1 61.952 32.085333l165.262223 234.040889a75.851852 75.851852 0 0 1-7.205926 96.237037L566.765037 854.85037a75.851852 75.851852 0 0 1-109.530074 0L123.354074 506.443852a75.851852 75.851852 0 0 1-7.130074-96.331852L282.187852 175.976296a75.851852 75.851852 0 0 1 61.895111-31.971555z m-0.587851 344.329481a32.009481 32.009481 0 0 0-45.207704 2.123852l-122.709333 134.84563-120.357926-134.637037-1.91526-1.972148a32.009481 32.009481 0 0 0-45.795555 44.638814l144.004741 161.090371 1.877333 1.934222a32.009481 32.009481 0 0 0 45.662815-1.706667l146.583703-161.109333 1.763556-2.123852a32.009481 32.009481 0 0 0-3.90637-43.083852z" fill="#FEA917" p-id="850"></path></svg>